<svg xmlns="http://www.w3.org/2000/svg" width="19" height="26" viewBox="0 0 19 26">
    <g fill="black" fill-rule="evenodd" stroke="black" stroke-width=".864">
        <path d="M2.102 2.869H6.1c.642 0 1.301-.035 1.94.046-.085-.011-.167-.023-.251-.033.48.063.949.19 1.396.375l-.225-.094c.425.18.824.41 1.191.688l-.19-.146c.372.286.704.615.993.983l-.148-.188c.281.363.513.758.695 1.18-.03-.075-.063-.149-.094-.224.187.444.314.907.378 1.383-.01-.083-.022-.165-.033-.248.06.467.06.939 0 1.405.01-.083.023-.165.033-.248-.064.476-.191.94-.378 1.383.03-.075.063-.148.094-.223-.182.42-.414.816-.695 1.18l.148-.19c-.289.37-.621.699-.993.984l.19-.146a5.556 5.556 0 0 1-1.19.688c.075-.03.149-.062.224-.093a5.557 5.557 0 0 1-1.396.375c.084-.011.166-.023.25-.033-.56.07-1.13.045-1.693.045H2.102a.946.946 0 0 0-.942.933v.492c0 .282.105.503.289.713l.174.199.87.997 3.054 3.503 3.336 3.826 1.853 2.127.041.047c.336.384.989.34 1.331 0a.933.933 0 0 0 .275-.66c0-.26-.107-.466-.275-.66l-1.466-1.68c-1.074-1.232-2.149-2.463-3.222-3.696l-3.214-3.685-1.44-1.651c.092.22.185.439.276.66v-.532l-.941.932H6.1c.509 0 1.023.018 1.532-.009a6.228 6.228 0 0 0 1.988-.419 6.82 6.82 0 0 0 1.864-1.107c1.005-.836 1.729-2.04 2.027-3.303a6.11 6.11 0 0 0 .138-2.044 6.646 6.646 0 0 0-.593-2.124c-.543-1.174-1.525-2.174-2.664-2.794-.971-.528-2.057-.778-3.161-.778H2.1a.946.946 0 0 0-.94.933c0 .507.429.93.942.93z"/>
        <path d="M16.797 6.54H2.102a.946.946 0 0 0-.942.932c0 .508.429.932.942.932h14.696a.946.946 0 0 0 .942-.932.947.947 0 0 0-.943-.932zM2.102 2.869H16.798a.946.946 0 0 0 .942-.932.946.946 0 0 0-.942-.933H2.103a.946.946 0 0 0-.942.933.944.944 0 0 0 .94.932z"/>
    </g>
</svg>
